<?xml version="1.0" encoding="UTF-8" standalone="no"?>
<svg
   version="1.2"
   viewBox="0 0 180 183"
   width="360"
   height="366"
   id="svg451"
   sodipodi:docname="LogoCBperu.svg"
   inkscape:version="1.2.2 (1:1.2.2+202305151914+b0a8486541)"
   inkscape:export-filename="LogoCBperu.png"
   inkscape:export-xdpi="96"
   inkscape:export-ydpi="96"
   xmlns:inkscape="http://www.inkscape.org/namespaces/inkscape"
   xmlns:sodipodi="http://sodipodi.sourceforge.net/DTD/sodipodi-0.dtd"
   xmlns:xlink="http://www.w3.org/1999/xlink"
   xmlns="http://www.w3.org/2000/svg"
   xmlns:svg="http://www.w3.org/2000/svg">
  <defs
     id="defs455">
    <marker
       style="overflow:visible"
       id="CurveIn"
       refX="2"
       refY="0"
       orient="auto-start-reverse"
       inkscape:stockid="CurveIn"
       markerWidth="3.54"
       markerHeight="7.0799999"
       viewBox="0 0 3.54 7.08"
       inkscape:isstock="true"
       inkscape:collect="always"
       preserveAspectRatio="xMidYMid">
      <path
         style="fill:none;fill-rule:evenodd;stroke:context-stroke;stroke-width:1.08"
         d="m -0.7647042,-3.0274156 c 1.656,0 3,1.344 3,3.00000005 0,1.65599995 -1.344,2.99999995 -3,2.99999995"
         id="path186" />
    </marker>
  </defs>
  <sodipodi:namedview
     id="namedview453"
     pagecolor="#ffffff"
     bordercolor="#999999"
     borderopacity="1"
     inkscape:showpageshadow="0"
     inkscape:pageopacity="0"
     inkscape:pagecheckerboard="0"
     inkscape:deskcolor="#d1d1d1"
     showgrid="false"
     inkscape:zoom="0.8579235"
     inkscape:cx="101.99045"
     inkscape:cy="241.86306"
     inkscape:window-width="1404"
     inkscape:window-height="767"
     inkscape:window-x="36"
     inkscape:window-y="1044"
     inkscape:window-maximized="1"
     inkscape:current-layer="Background" />
  <title
     id="title381">LogoCBperu</title>
  <style
     id="style383">
		.s0 { fill: #fefefe } 
		.s1 { fill: #db170e } 
		.s2 { opacity: 1;fill: #db3324 } 
		.s3 { fill: #f0eade } 
		.s4 { fill: #e2cdd2 } 
		.s5 { fill: #e3a8a8 } 
		.s6 { fill: #dd5d56 } 
		.s7 { fill: #e17974 } 
		.s8 { opacity: .5;fill: #e04840 } 
		.s9 { opacity: .8;fill: #dd3b33 } 
		.s10 { opacity: .1;fill: #e87f78 } 
		.s11 { fill: #220f6a } 
		.s12 { fill: #a59ebe } 
		.s13 { fill: #483881 } 
		.s14 { fill: #71659c } 
		.s15 { fill: #faf20c } 
		.s16 { fill: #f9f270 } 
		.s17 { fill: #e89810 } 
	</style>
  <g
     id="Background">
    <path
       style="fill:none;stroke:#144a7c;stroke-width:1.276;stroke-dasharray:none;stroke-opacity:1;paint-order:stroke markers fill"
       id="path2085"
       sodipodi:type="arc"
       sodipodi:cx="90.836586"
       sodipodi:cy="91.592445"
       sodipodi:rx="89.020096"
       sodipodi:ry="91.12233"
       sodipodi:start="0"
       sodipodi:end="6.2831592"
       sodipodi:open="true"
       sodipodi:arc-type="arc"
       d="M 179.85668,91.592445 A 89.020096,91.12233 0 0 1 90.837167,182.71478 89.020096,91.12233 0 0 1 1.8164902,91.593635 89.020096,91.12233 0 0 1 90.834843,0.47011568 89.020096,91.12233 0 0 1 179.85668,91.590066"
       inkscape:export-filename="logoV.png"
       inkscape:export-xdpi="96"
       inkscape:export-ydpi="96" />
    <path
       style="fill:none;stroke:#144a7c;stroke-width:1.26;stroke-dasharray:none;stroke-opacity:1;paint-order:stroke markers fill"
       id="path2085-3"
       sodipodi:type="arc"
       sodipodi:cx="91.368286"
       sodipodi:cy="91.081535"
       sodipodi:rx="67.741745"
       sodipodi:ry="67.81295"
       sodipodi:start="0"
       sodipodi:end="6.2831592"
       sodipodi:open="true"
       sodipodi:arc-type="arc"
       d="M 159.11003,91.081535 A 67.741745,67.81295 0 0 1 91.368728,158.89449 67.741745,67.81295 0 0 1 23.626541,91.082421 67.741745,67.81295 0 0 1 91.36696,23.268585 a 67.741745,67.81295 0 0 1 67.74307,67.81118" />
    <path
       style="fill:none;stroke:#144a7c;stroke-width:2;stroke-dasharray:none;stroke-opacity:1;paint-order:stroke markers fill"
       id="path2085-3-6"
       sodipodi:type="arc"
       sodipodi:cx="-89.154572"
       sodipodi:cy="-93.966866"
       sodipodi:rx="60.902077"
       sodipodi:ry="61.961468"
       sodipodi:start="5.9276645"
       sodipodi:end="3.5444777"
       sodipodi:open="true"
       sodipodi:arc-type="arc"
       d="m -32.060986,-115.53433 a 60.902077,61.961468 0 0 1 -21.394901,71.768117 60.902077,61.961468 0 0 1 -73.693523,-1.775909 60.902077,61.961468 0 0 1 -18.03103,-72.718228"
       inkscape:transform-center-x="-0.98595267"
       inkscape:transform-center-y="-23.991163"
       transform="rotate(178.61756)" />
    <path
       id="Path 38"
       class="s11"
       d="m 107.54492,120.09296 4,-1 h 1 l 5,1 h 2 2 1 l 1,1 h 1 1 l 1,1 h 1 2 1 l 3,1 h 4 l 5,1 -1,1 -1,1 v 1 l -1,1 h -4 -8 -1 l -1,-1 h -1 -1 l -1,-1 h -1 -1 -1 l -3,-1 h -9 l -2,1 h -1 -1 -1 -1 l -1,1 h -0.999997 -1 l -1,1 h -1 -1 -5 -2.000004 -1 l -1,-1 h -1 -1 l -1,-1 h -1 -1 -1 -1 -6 -1 -2 -2 -2 l -1,1 h -1 -1 -1 -2 l -3,1 h -2 -7 -1 l -1.07955,-0.3045 -0.92045,-0.6955 -1,-1 -0.51388,-0.80503 -0.68838,-1.0446 -0.79774,-1.15037 -0.36917,-0.74502 -0.54821,-1.31673 1.18833,0.12783 1.14948,0.10287 2.57957,-0.16894 h 1 l 4,1 h 8 l 3,-1 h 1 2 l 1,-1 h 1 2 1 9 1 1 1 l 1,1 h 1 1 l 1,1 h 2 9.000004 1 l 1,-1 h 0.999997 1 l 1,-1 h 1 1 1 z m -66.030171,0.67203 0.70627,0.2797 -0.20615,0.43093 -0.38925,-0.43806 z m 65.030171,8.32797 2,-1 h 3 1 2 l 3,1 h 2 1 1 l 1,1 h 1 1 l 1,1 h 1 1 l 1,1 h 1 4 1 v 1 l -1,1 -1,1 h -1 l -1,1 -1,1 h -1 -1 -1 -1 -1 l -1,-1 h -1 -1 l -1,-1 h -1 -1 -2 l -2,-1 h -3 -1 -3 l -2,1 h -1 -1 -1 l -1,1 h -1 -0.999997 -1 l -1,1 h -1 -1 -5 -3.000004 l -3,-1 h -1 -2 -2 l -3,-1 h -6 l -3,1 h -1 -2 -2 -4 -4 -1 l -1,-1 -1,-1 -1,-1 -1,-1 v -1 h 10 3 l 1,-1 h 1 1 2 l 1,-1 h 1 2 3 3 l 2,1 h 1 2 1 l 1,1 h 1 1 2 7.000004 1 1 1 l 1,-1 h 0.999997 1 l 1,-1 h 1 1 z m -1,11 2,-1 h 1 6 l 2,1 h 2 1 1 l 1,1 h 1 1 v 1 h -1 l -1,1 h -1 l -1,1 h -1 l -1,1 h -1 l -1,1 h -1 l -1,1 h -1 -1 l -1,1 h -1 -1 l -1,1 h -1 -1 -2 l -1,1 h -1 -1.999997 -2 -9.000004 -3 -2 -1 l -1,-1 h -2 -1 -1 l -1,-1 h -1 -1 l -1,-1 h -1 -1 l -1,-1 h -1 l -1,-1 h -1 l -1,-1 h -1 l -1,-1 h -1 l -1,-1 h -1 v -1 h 3 3 l 3,-1 h 2 2 2 l 3,1 h 2 1 2 l 3,1 h 3.000004 5 2 l 1,-1 h 1 0.999997 1 l 1,-1 h 1 1 z"
       sodipodi:nodetypes="cccccccccccccccccccccccccccccccccccccccccccccccccccccccccccccccccccccccccccccccccccccccccccccccccccccccccccccccccccccccccccccccccccccccccccccccccccccccccccccccccccccccccccccccccccccccccccccccccccccccccccccccccccccccccccccccccccccccccccccccccccccccccccccccccccccccccccccccccccccccccccccccccccccccccc"
       style="stroke:#144a7c;stroke-opacity:1;fill:#144a7c;fill-opacity:1" />
    <g
       id="g16431"
       transform="translate(140.52392,-198.21923)"
       style="stroke:#144a7c;stroke-opacity:1;fill:#144a7c;fill-opacity:1">
      <path
         id="Path 39"
         fill-rule="evenodd"
         class="s1"
         d="m -26.970122,239.19574 v -1 h 2 v 2 h -1 z m -2,1 h 1 v 1 h -1 z m -46,1 h 3 v 2 l 1,1 v 4 h -1 v -2 l -3,-3 z m 4,0 h 1 v 1 h -1 z m 1,1 h 1 v 1 h -1 z m 40,2 v -2 h 1 v 1 h 2 v 2 l 1,1 v 2 h -1 l -1,-1 h -1 v -1 h -2 v -1 z m 3,-2 h 1 v 1 h -1 z m -42,1 h 1 v 4 h -1 z m 33,3 h 1 v 1 h -1 z m -33,2 1,-1 h 3 l 2,1 h 2 v 1 l -2,1 v 1 l -5,-1 h -1 z m 30,0 1,-1 h 2 v 1 l -2,2 h 1 v 2 h -4 v -1 l 1,-1 h 1 z m -44,0 h 1 v 2 h -1 z m 47,1 v -1 h 4 l 1,1 h 1 v 1 h -3 l -1,-1 z m 10,-1 h 1 v 1 h -1 z m -55,1 h 1 v 1 h -1 z m 8,0 h 1 v 1 h -1 z m 12,0 h 1 v 1 h -1 z m 24,0 h 1 v 1 h -1 z m 12,0 h 1 v 1 h -1 z m 7,1 1,-1 h 1 v 4 h -1 v -1 l -1,-1 z m -56,0 h 1 v 2 l -1,1 v 7 h -1 v -4 l -1,-1 h -5 v -1 h 2 v -3 h 1 l 2,1 z m -6,0 h 1 v 1 h -1 z m 10,0 h 1 l 1,1 v 1 l -1,1 h -1 z m 2,1 v -1 l 3,1 z m 38,0 v -1 h 2 l 3,3 v 1 l -2,2 v -2 z m 6,0 v -1 h 2 v 1 z m -40,1 1,-1 h 1 v 4 l -1,1 v 1 l -1,1 v 2 h -4 v -1 l 4,-4 z m 42,0 v -1 h 2 v 1 z m -61,0 h 1 v 1 h -1 z m 40,0 h 1 l 1,1 v 1 h -1 l -1,1 v 1 h -3 v -1 z m 6,0 h 1 v 1 h -1 z m -34,2 v -1 h 1 v 6 l -2,2 v -5 z m 52,0 v -1 h 2 v 1 z m -40,0 h 4 v 1 l -3,1 h -1 z m 5,0 h 1 v 1 h -1 z m 14,0 h 1 v 1 h -1 z m 5,0 h 1 v 1 h -1 z m 11,2 -1,-2 h 3 v 1 l -1,1 z m -15,-1 h 1 l 2,2 v 1 h 2 l 1,1 h 1 l -1,2 -1,1 h -1 l -1,-1 v 1 l -1,1 v 1 h -1 v -6 l -1,-1 z m 5,1 v -1 h 2 v 1 z m -26,0 h 1 l 1,1 v 1 l -1,1 h -1 z m 2,1 v -1 h 4 v 1 z m 26,0 v -1 h 2 v 1 z m 2,0 1,-1 h 2 v 2 h -3 z m 5,1 1,-2 v 2 z m -45,1 h 1 v 1 h -1 z m 9,0 h 1 v 3 h -1 z m 34,0 h 1 v 1 h -1 z m -47,1 h 1 v 1 h -1 z m 5,0 h 1 v 1 h -1 z m -4,1 h 1 v 1 h -1 z m 1,1 4,-1 h 3 l -2,2 h -5 z m 10,0 h 1 l 1,1 v 3 l 1,1 v 2 h -1 l -2,-2 z m -3,2 h 1 v 2 h -1 z m 26,0 h 1 v 1 h -1 z m -1,1 h 1 v 1 l -1,1 z m -24,3 v -1 h 2 v 2 h -1 z m 2,2 v -1 h 2 l 1,1 v 1 h -2 z m 3,-1 h 1 v 1 h -1 z m 1,1 h 1 v 1 h -1 z m 18,0 h 1 v 1 h -1 z m -19,1 h 1 v 1 h -1 z m 1,1 1,-1 h 1 l 1,1 h 1 v 1 l -1,1 h -1 l -1,-1 h -1 z m 12,-1 h 1 v 1 h -1 z m 5,0 h 1 v 1 h -1 z m -6,1 h 1 v 1 h -1 z m 5,0 h 1 v 1 h -1 z m -12,1 h 1 v 1 h -1 z m 5,1 v -1 h 2 v 1 z m 6,-1 h 1 v 1 h -1 z m -12,1 h 1 v 1 h -1 z m 2,1 v -1 h 4 v 1 l -1,1 h -1 z m -1,0 h 1 v 1 h -1 z m 1,3 v -2 h 2 v 1 l -1,1 z m -1,0 h 1 v 1 h -1 z m 6,0 h 1 v 1 h -1 z m 3,2 -1,-2 h 2 l 2,2 v 4 l -1,1 -2,-1 v -2 l 2,1 z m -10,-1 h 1 v 1 h -1 z m 5,1 v -1 h 2 v 1 z m -6,0 h 1 v 1 h -1 z m 5,0 h 1 v 1 h -1 z m 3,1 v -1 h 3 v 2 h -1 l -1,-1 z m -9,0 h 1 v 2 h -1 z m 5,0 h 1 v 1 h -1 z m -1,1 h 1 v 2 h -1 z m -5,2 h 1 v 1 h -1 z m 3,1 1,-1 h 1 v 2 l -1,1 h -1 z m 10,1 h 1 v 1 h -1 z m -7,3 -2,-2 h 1 l 1,1 z m 6,-2 h 1 v 2 l -1,1 h -2 v -1 z m -11,1 h 1 v 1 h -1 z m 7,2 -2,-1 h 2 z m -5,1 v -1 l 2,2 h -1 z m 4,1 1,-2 h 2 v 1 l -1,1 z m 7,-2 h 1 v 1 h -1 z m -1,1 h 1 v 1 h -1 z m -8,1 h 2 v 1 l -4,4 h -1 v -2 z m 6,1 1,-1 h 1 v 2 h -2 z m -2,2 1,-1 h 1 v 2 h -3 v -1 z m 5,1 -1,-2 h 2 l 1,1 v 2 l 1,1 v 1 h -2 z m -13,1 h 1 v 1 h -1 z m 11,0 h 1 v 1 h -1 z m -7,1 h 1 v 1 h -1 z m -1,2 v -1 h 1 l 1,2 v 2 l -2,-1 v 3 h -1 l -1,-1 v -2 z m 10,1 v -2 h 1 v 2 z m -13,0 h 1 v 1 h -1 z m 12,0 h 1 v 1 h -1 z m -1,1 h 1 v 1 h -1 z m -4,2 -2,-1 h 2 z m 2,-1 h 1 v 1 h -1 z m 5,0 h 1 v 1 h -1 z m -7,2 v -1 h 2 v 1 z m 6,-1 h 1 v 1 h -1 z m -10,1 3,1 v 1 l -2,2 h -2 v -1 l 1,-1 z m 7,2 1,-1 h 1 v 2 h -2 z m -2,2 v -1 h 2 l 1,2 h -2 z m 4,-1 h 1 v 1 h -1 z m -11,1 h 1 v 1 h -1 z m 6,0 h 1 v 1 h -1 z m 6,0 h 2 l 1,1 v 2 h -1 v 1 h -2 l -1,-1 v -1 h 2 z m -13,1 h 1 v 2 h -1 z m 5,0 h 1 v 1 h -1 z"
         style="stroke:#144a7c;stroke-opacity:1;fill:#144a7c;fill-opacity:1" />
      <path
         id="Path 40"
         fill-rule="evenodd"
         class="s2"
         d="m -27.970122,239.19574 h 1 v 1 h -1 z m -47,2 v -1 h 3 v 1 z m 49,-1 h 1 v 1 h -1 z m -44,1 h 1 v 1 h -1 z m 40,0 h 1 v 1 h -1 z m 2,1 h 1 v 1 h -1 z m -44,1 h 1 v 1 h -1 z m 38,3 v -1 h 3 v 1 z m 7,-1 h 1 v 1 h -1 z m -10,1 h 1 v 1 h -1 z m 1,1 1,-1 h 1 v 2 h -2 z m 6,-1 h 1 v 1 h -1 z m -39,1 h 1 v 1 h -1 z m 6,1 -2,-1 h 2 z m 37,-1 h 1 v 1 h -1 z m -56,3 v -2 h 1 v 2 z m 9,-1 v -1 h 2 v 1 z m 41,-1 h 1 v 1 h -1 z m 5,0 h 1 v 1 h -1 z m -41,2 5,1 -1,1 h -1 v -1 z m 28,-1 h 1 v 1 h -1 z m 4,0 h 1 v 1 h -1 z m 6,0 h 1 v 1 h -1 z m -53,1 h 1 v 2 h -1 z m 10,0 h 1 v 1 h -1 z m 4,0 h 1 v 1 h -1 z m 6,0 h 1 v 1 h -1 z m 32,0 h 1 v 1 h -1 z m 12,0 h 1 v 1 h -1 z m -61,1 h 1 v 1 h -1 z m 4,0 h 1 v 1 h -1 z m 5,2 v -2 h 1 v 2 z m 3,-2 h 1 v 1 h -1 z m 8,0 h 1 v 1 h -1 z m 18,1 v -1 h 1 v 2 z m 19,-1 h 1 v 1 h -1 z m 3,0 h 1 v 1 h -1 z m -24,1 h 1 v 1 h -1 z m 6,0 h 1 v 1 h -1 z m 20,0 h 1 v 1 h -1 z m -52,1 h 1 v 1 h -1 z m 25,0 h 1 v 1 h -1 z m 9,0 h 1 v 1 h -1 z m 11,0 h 1 v 1 h -1 z m 5,0 h 1 v 1 h -1 z m -52,3 v -2 h 1 z m 17,-2 h 1 v 1 h -1 z m 2,1 v -1 h 1 l 1,1 v 1 l -1,1 h -2 v -1 z m 26,1 2,-2 1,2 -1,2 -1,1 h -1 z m 5,-1 v -1 h 2 v 1 z m -38,0 h 1 v 1 h -1 z m 2,1 3,-1 v 1 z m 20,-1 h 1 v 1 h -1 z m 10,0 h 1 v 1 h -1 z m -31,1 h 1 v 1 h -1 z m 13,1 v -1 h 2 v 1 z m 9,-1 h 1 v 1 h -1 z m 4,0 h 1 v 1 h -1 z m 3,0 h 1 v 1 h -1 z m 6,0 h 1 v 1 h -1 z m -37,3 v -2 h 1 v 2 z m 25,-2 h 1 v 1 h -1 z m 5,0 h 1 v 1 h -1 z m 6,1 h 1 v 1 h -1 z m -47,3 2,-2 2,2 -4,1 z m 3,-2 h 1 v 1 h -1 z m 1,1 h 4 v 4 h -1 l -1,-1 h -1 l 2,-2 h -3 z m 8,-1 h 1 v 1 h -1 z m 27,2 1,-2 h 1 l 3,1 v 1 z m 7,-2 h 1 v 1 h -1 z m -47,1 h 1 v 1 h -1 z m 11,2 v -2 h 1 v 2 z m -12,-1 h 1 v 1 h -1 z m 13,1 h 1 v 1 h -1 z m 22,1 h 1 v 1 h -1 z m 1,1 h 1 v 1 h -1 z m 3,0 h 1 v 1 h -1 z m -4,1 h 1 v 1 h -1 z m -26,2 v -1 h 3 v 1 z m 24,-1 h 1 v 1 l -1,1 z m 5,0 h 1 v 1 h -1 z m -26,3 v -2 l 2,2 z m 20,-1 h 1 v 1 h -1 z m -18,1 h 1 v 1 h -1 z m 17,0 h 1 v 1 h -1 z m -16,1 h 1 v 1 h -1 z m 14,0 h 1 v 1 h -1 z m -15,1 h 1 v 1 h -1 z m 2,0 h 1 v 1 h -1 z m 2,0 h 1 v 1 h -1 z m 3,2 h 1 v 1 h -1 z m -3,1 h 1 v 1 h -1 z m 7,0 h 1 v 1 h -1 z m 2,3 3,-3 h 1 v 1 l -2,2 v 1 h -1 z m -8,-2 h 1 v 1 h -1 z m 2,1 v -1 l 2,1 z m -1,0 h 1 v 2 h -1 z m -1,2 h 1 v 1 h -1 z m 6,0 h 1 v 1 h -1 z m 1,1 1,-1 h 1 l 1,2 h -3 z m -8,0 h 1 v 1 h -1 z m 1,1 h 1 v 1 h -1 z m 5,1 v -1 h 2 v 1 z m 5,1 v -2 l 2,3 z m -11,-1 h 1 v 1 h -1 z m 14,1 h 1 v 5 h -1 z m -16,2 v -1 h 2 v 1 z m 13,0 2,1 v 1 h -2 z m -13,1 h 1 v 2 h -1 z m 1,2 h 1 v 1 h -1 z m 1,1 1,-1 h 1 l 2,2 2,1 -1,2 h -2 l -3,-3 z m 11,-1 h 1 v 1 h -1 z m -7,1 h 1 v 1 h -1 z m 9,0 h 1 v 2 h -1 z m -5,2 h 1 v 1 h -1 z m -6,2 h 1 v 1 h -1 z m 3,0 h 1 v 1 h -1 z m 6,1 h 1 v 1 h -1 z m -4,1 h 1 v 1 h -1 z m 2,2 v -2 h 2 l 1,2 1,3 h -1 l -1,-1 v -1 h -1 z m -5,1 1,-1 h 1 v 1 z m 4,-1 h 1 v 1 h -1 z m 6,1 h 1 v 1 h -1 z m -15,1 h 1 v 3 h -1 z m 12,1 h 1 v 2 h -1 z m 2,1 v -1 h 2 v 1 z m -12,0 h 1 v 1 h -1 z m 13,1 h 1 v 1 h -1 z m -15,1 h 1 v 1 h -1 z m 3,3 v -3 l 4,2 v 1 l -1,1 z m 2,-3 h 1 v 1 h -1 z m 5,0 h 1 v 1 l -1,1 z m -3,2 v -1 h 2 v 1 z m 0,1 h 1 v 1 h -1 z m 4,1 1,-1 h 1 v 1 z m -5,0 h 1 v 1 h -1 z m 3,1 h 1 v 1 h -1 z m 3,0 h 1 v 1 h -1 z m -1,3 -1,-2 h 2 l 1,1 1,2 h -2 z m 2,-2 h 1 v 1 h -1 z m -11,1 h 1 v 1 h -1 z m 4,0 h 1 v 1 h -1 z m -5,1 h 1 v 1 h -1 z m 9,0 h 1 v 1 h -1 z m -7,2 1,-1 h 1 v 1 z m 13,-1 h 1 v 1 h -1 z m -15,2 v -1 h 2 v 1 z"
         style="paint-order:stroke markers fill;stroke:#144a7c;stroke-opacity:1;fill:#144a7c;fill-opacity:1" />
      <path
         id="Path 48"
         fill-rule="evenodd"
         class="s6"
         d="m -24.970122,240.19574 v -2 l 1,2 z m -47,0 h 1 v 1 h -1 z m 3,2 h 1 v 1 h -1 z m 42,3 v -2 h 1 v 2 z m -8,0 h 1 v 1 h -1 z m -28,2 h 1 v 1 h -1 z m 38,1 h 1 v 1 h -1 z m -59,3 v -2 h 1 v 2 z m 4,-2 h 1 v 1 h -1 z m 56,0 h 1 v 1 h -1 z m 8,2 v -2 h 1 v 2 z m -63,-1 h 1 v 1 h -1 z m 19,0 h 1 v 1 h -1 z m 19,0 h 1 v 1 h -1 z m 4,0 h 1 v 1 h -1 z m 17,0 h 1 v 1 h -1 z m -56,2 -2,-1 h 2 z m 9,0 v -1 h 2 v 1 z m 2,0 h 1 v 1 h -1 z m 6,1 h 1 v 1 h -1 z m 2,1 v -1 h 3 v 1 z m -13,2 v -2 h 1 v 2 z m 24,-2 h 1 v 1 h -1 z m 12,0 h 1 v 1 h -1 z m 6,0 h 1 v 1 h -1 z m 8,0 h 1 v 1 h -1 z m -20,1 h 1 v 1 h -1 z m -4,1 h 1 v 1 h -1 z m -14,1 h 1 v 1 h -1 z m -12,1 h 1 v 1 h -1 z m -5,2 h 1 v 1 h -1 z m 47,0 h 1 v 1 h -1 z m -6,2 1,-1 v 2 h -1 z m -39,0 h 1 v 1 h -1 z m 38,3 h 1 v 1 h -1 z m -25,1 h 1 v 1 h -1 z m 18,1 h 1 v 1 h -1 z m -17,1 h 1 v 1 h -1 z m 16,0 h 1 v 1 h -1 z m -20,1 h 1 v 1 h -1 z m 5,0 h 1 v 1 h -1 z m 14,0 h 1 v 1 h -1 z m -13,1 h 1 v 1 h -1 z m -2,2 h 1 v 1 h -1 z m 5,0 h 1 v 1 h -1 z m 6,0 h 1 v 1 h -1 z m -9,8 h 1 v 1 h -1 z m 6,1 h 1 v 1 h -1 z m -7,1 h 1 v 1 h -1 z m 6,0 h 1 v 1 h -1 z m 6,0 h 1 v 1 h -1 z m -12,5 h 1 v 1 h -1 z m 16,0 h 1 v 1 h -1 z m -8,3 v -1 h 2 v 1 z m -6,0 h 1 v 1 h -1 z m -1,6 h 1 v 1 h -1 z m 15,0 h 1 v 1 h -1 z m -10,1 h 1 v 1 h -1 z m 5,0 h 1 v 1 h -1 z m -5,4 -1,-2 h 1 z m 6,0 h 1 v 1 h -1 z m -5,1 h 1 v 1 h -1 z m 9,0 h 1 v 1 h -1 z m -1,2 h 1 v 1 h -1 z m -12,3 h 1 v 1 h -1 z m -1,1 h 1 v 1 h -1 z m -1,1 h 1 v 1 h -1 z m -1,1 h 1 v 1 h -1 z m 7,0 h 1 v 1 h -1 z m 5,1 h 1 v 1 h -1 z m 4,1 h 1 v 1 h -1 z"
         style="stroke:#144a7c;stroke-opacity:1;fill:#144a7c;fill-opacity:1" />
      <path
         id="Path 51"
         fill-rule="evenodd"
         class="s17"
         d="m -71.970122,243.19574 v -2 h 1 v 2 z m 43,-2 h 1 v 2 h -1 z m -40,4 -1,-2 h 1 z m 35,3 v -2 h 1 l 1,2 z m 3,-2 h 1 v 1 h -1 z m 2,1 h 1 v 1 h -1 z m -43,2 h 1 v 1 h -1 z m 9,1 2,-1 v 1 z m 37,-1 h 1 v 1 h -1 z m -55,1 h 1 v 1 h -1 z m 10,0 h 1 v 1 h -1 z m 10,0 h 1 v 1 h -1 z m 36,0 h 1 v 1 h -1 z m -48,1 h 1 v 1 h -1 z m 54,0 h 1 v 1 h -1 z m -62,2 1,-1 h 1 v 2 h -2 z m 21,2 v -3 h 1 v 3 z m 19,-3 h 1 v 2 h -1 z m 2,0 h 1 v 1 h -1 z m -35,3 v -2 h 1 z m 37,-2 h 1 v 1 h -1 z m 13,1 v -1 h 4 v 1 z m -12,0 h 1 v 1 h -1 z m -19,1 h 1 v 1 h -1 z m 18,0 h 1 v 1 h -1 z m 2,0 h 1 v 1 h -1 z m -28,1 h 1 v 1 h -1 z m 27,0 h 1 v 1 h -1 z m -38,3 2,-2 v 3 h -2 z m 42,-2 h 1 v 1 h -1 z m -32,3 v -2 h 1 z m 33,-1 2,-1 h 2 v 2 h -1 z m -33,6 2,-3 v 4 h -2 z m 29,-1 v -2 h 1 v 2 z m -2,-1 h 1 v 1 h -1 z m -7,7 h 1 v 1 h -1 z m -1,1 h 1 v 1 h -1 z m -1,1 h 1 v 1 h -1 z m -1,1 h 1 v 1 h -1 z m -4,3 h 1 v 1 h -1 z m -2,2 h 1 v 1 h -1 z m -1,1 h 1 v 1 h -1 z m -2,3 h 1 v 1 h -1 z m -1,2 h 1 v 1 h -1 z m 13,2 h 1 v 1 h -1 z m 1,1 h 1 v 1 h -1 z m -4,3 h 1 v 1 h -1 z m 2,0 h 1 v 1 h -1 z m -1,1 h 1 v 1 h -1 z m -4,1 h 1 v 1 h -1 z m -6,5 h 1 v 1 h -1 z m 14,3 h 1 v 1 h -1 z m -14,1 h 1 v 1 h -1 z m 12,0 h 1 v 1 h -1 z m -1,1 h 1 v 1 h -1 z m 2,0 h 1 v 1 h -1 z m -1,1 h 1 v 1 h -1 z m -4,1 h 1 v 1 h -1 z m -1,1 h 1 v 1 h -1 z m -5,4 h 1 v 1 h -1 z m 2,0 h 1 v 1 h -1 z m -1,1 h 1 v 1 h -1 z m -3,1 h 1 v 1 h -1 z"
         style="fill:#144a7c;fill-opacity:1;stroke:#144a7c;stroke-opacity:1" />
      <path
         id="Path 52"
         class="s1"
         d="m -51.970122,256.19574 h 1 v 1 h -1 z m 26,2 h 1 v 1 h -1 z m -11,9 h 1 v 1 h -1 z m -1,1 h 1 v 1 h -1 z m -1,1 h 1 v 1 h -1 z m -8,8 h 1 v 1 h -1 z m -9,12 h 1 v 1 h -1 z m 9,7 h 1 v 1 h -1 z m 2,0 h 1 v 1 h -1 z m 0,2 h 1 v 1 h -1 z m -6,7 h 1 v 1 h -1 z m 5,5 h 1 v 1 h -1 z"
         style="stroke:#144a7c;stroke-opacity:1;fill:#144a7c;fill-opacity:1" />
      <path
         id="Path 53"
         class="s2"
         d="m -26.970122,241.19574 h 1 v 1 h -1 z m -2,2 h 1 v 1 h -1 z m 0,2 h 1 v 1 h -1 z m 1,2 h 1 v 1 h -1 z m -9,1 h 1 v 1 h -1 z m -33,1 h 1 v 1 h -1 z m 32,0 h 1 v 1 h -1 z m -1,1 h 1 v 1 h -1 z m 12,1 h 1 v 1 h -1 z m -47,1 h 1 v 1 h -1 z m 48,0 h 1 v 1 h -1 z m -53,1 h 1 v 1 h -1 z m 51,0 h 1 v 1 h -1 z m -15,1 h 1 v 1 h -1 z m 4,0 h 1 v 1 h -1 z m -37,1 h 1 v 1 h -1 z m 13,0 h 1 v 1 h -1 z m -1,2 h 1 v 1 h -1 z m 25,0 h 1 v 1 h -1 z m 3,4 h 1 v 1 h -1 z m -1,1 h 1 v 1 h -1 z m -20,11 h 1 v 1 h -1 z m 2,0 h 1 v 1 h -1 z m 5,2 h 1 v 1 h -1 z m 2,2 h 1 v 1 h -1 z m -6,6 h 1 v 1 h -1 z m 0,3 h 1 v 1 h -1 z m 5,5 h 1 v 1 h -1 z m -3,2 h 1 v 1 h -1 z m 4,0 h 1 v 1 h -1 z m -5,4 h 1 v 1 h -1 z m -1,1 h 1 v 1 h -1 z m 0,8 h 1 v 1 h -1 z m 7,0 h 1 v 1 h -1 z m -5,1 h 1 v 1 h -1 z m 2,1 h 1 v 1 h -1 z m 1,1 h 1 v 1 h -1 z m 6,2 h 1 v 1 h -1 z"
         style="stroke:#144a7c;stroke-opacity:1;fill:#144a7c;fill-opacity:1" />
      <path
         id="Path 54"
         class="s15"
         d="m -17.970122,251.19574 h 1 v 1 h -1 z"
         style="stroke:#144a7c;stroke-opacity:1;fill:#144a7c;fill-opacity:1" />
      <path
         id="Path 58"
         class="s4"
         d="m -32.970122,254.19574 h 1 v 1 h -1 z"
         style="stroke:#144a7c;stroke-opacity:1;fill:#144a7c;fill-opacity:1" />
      <path
         id="Path 60"
         class="s5"
         d="m -73.970122,244.19574 h 1 v 1 h -1 z m 38,8 h 1 v 1 h -1 z m 1,1 h 1 v 1 h -1 z m -31,3 h 1 v 1 h -1 z m -1,1 h 1 v 1 h -1 z m 20,30 h 1 v 1 h -1 z m -4,1 h 1 v 1 h -1 z m 3,0 h 1 v 1 h -1 z m -4,13 h 1 v 1 h -1 z"
         style="stroke:#144a7c;stroke-opacity:1;fill:#144a7c;fill-opacity:1" />
      <path
         id="Path 61"
         class="s6"
         d="m -74.970122,243.19574 h 1 v 1 h -1 z m 41,6 h 1 v 1 h -1 z m 4,2 h 1 v 1 h -1 z m -39,1 h 1 v 1 h -1 z m 40,0 h 1 v 1 h -1 z m -30,6 h 1 v 1 h -1 z m 3,46 h 1 v 1 h -1 z"
         style="stroke:#144a7c;stroke-opacity:1;fill:#144a7c;fill-opacity:1" />
      <path
         id="Path 62"
         class="s7"
         d="m -72.970122,245.19574 h 1 v 1 h -1 z m 50,10 h 1 v 1 h -1 z m -41,13 h 1 v 1 h -1 z m 2,2 h 1 v 1 h -1 z m 15,11 h 1 v 1 h -1 z m -8,10 h 1 v 1 h -1 z m 10,21 h 1 v 1 h -1 z"
         style="stroke:#144a7c;stroke-opacity:1;fill:#144a7c;fill-opacity:1" />
      <path
         id="Path 64"
         class="s17"
         d="m -26.970122,239.19574 h 1 v 1 h -1 z m -44,7 h 1 v 1 h -1 z m 40,2 h 1 v 1 h -1 z m 2,1 h 1 v 1 h -1 z m 1,1 h 1 v 1 h -1 z m -54,2 h 1 v 1 h -1 z m 10,1 h 1 v 1 h -1 z m 11,3 h 1 v 1 h -1 z m 26,1 h 1 v 1 h -1 z m 1,1 h 1 v 1 h -1 z m -28,1 h 1 v 1 h -1 z m 26,6 h 1 v 1 h -1 z m -5,5 h 1 v 1 h -1 z m -1,1 h 1 v 1 h -1 z m -1,1 h 1 v 1 h -1 z m -1,1 h 1 v 1 h -1 z m -8,4 h 1 v 1 h -1 z m 2,1 h 1 v 1 h -1 z m -1,1 h 1 v 1 h -1 z m -1,1 h 1 v 1 h -1 z m -1,1 h 1 v 1 h -1 z m -2,3 h 1 v 1 h -1 z m 12,0 h 1 v 1 h -1 z m -14,2 h 1 v 1 h -1 z m 11,3 h 1 v 1 h -1 z m 2,0 h 1 v 1 h -1 z m -3,3 h 1 v 1 h -1 z m -6,2 h 1 v 1 h -1 z m 3,0 h 1 v 1 h -1 z m -4,1 h 1 v 1 h -1 z m 3,0 h 1 v 1 h -1 z m -4,1 h 1 v 1 h -1 z m 0,3 h 1 v 1 h -1 z m 10,5 h 1 v 1 h -1 z m -4,3 h 1 v 1 h -1 z m -4,1 h 1 v 1 h -1 z"
         style="fill:#144a7c;fill-opacity:1;stroke-width:0.75;stroke-dasharray:none;marker-start:url(#CurveIn);stroke:#144a7c;stroke-opacity:1" />
    </g>
    <text
       xml:space="preserve"
       style="font-size:17.7146px;line-height:1;fill:#144a7c;fill-opacity:1;stroke:none;stroke-width:3.32149;stroke-dasharray:none;stroke-opacity:1;paint-order:stroke markers fill"
       id="text5183"
       transform="matrix(-0.86685385,0.6018012,-0.60124645,-0.86351853,225.06819,113.75914)"
       inkscape:transform-center-x="1.1253506"
       inkscape:transform-center-y="-22.060398"><textPath
         xlink:href="#path2085-3"
         id="textPath9818"
         style="font-style:normal;font-variant:normal;font-weight:normal;font-stretch:normal;font-size:17.7146px;font-family:'Abyssinica SIL';-inkscape-font-specification:'Abyssinica SIL';fill:#144a7c;fill-opacity:1;stroke:none;stroke-width:3.32149;stroke-dasharray:none;stroke-opacity:1">COLEGIO DE BIOLOGOS DEL PERU</textPath></text>
    <text
       xml:space="preserve"
       style="font-style:normal;font-variant:normal;font-weight:normal;font-stretch:normal;font-size:18.6667px;font-family:'Abyssinica SIL';-inkscape-font-specification:'Abyssinica SIL';fill:#144a7c;fill-opacity:1;stroke:none;stroke-width:1.32177;stroke-dasharray:none;stroke-opacity:1;paint-order:stroke markers fill"
       id="text10567"
       y="169.02509"
       x="74.540955"
       transform="scale(0.96839796,1.0326333)"><tspan
         sodipodi:role="line"
         id="tspan10565"
         style="font-size:18.6667px;stroke-width:1.32177;stroke:none;stroke-opacity:1;fill:#144a7c;fill-opacity:1"
         x="74.540955"
         y="169.02509">1972</tspan></text>
  </g>
</svg>
